<?xml version="1.0" encoding="UTF-8" standalone="no"?>
<!DOCTYPE svg PUBLIC "-//W3C//DTD SVG 1.1//EN" "http://www.w3.org/Graphics/SVG/1.1/DTD/svg11.dtd">
<!-- Generated by graphviz version 2.40.1 (20161225.0304)
 -->
<!-- Title: G Pages: 1 -->
<svg width="465pt" height="505pt" viewBox="0.00 0.00 465.25 505.18" xmlns="http://www.w3.org/2000/svg" xmlns:xlink="http://www.w3.org/1999/xlink">
<g id="graph0" class="graph" transform="scale(1 1) rotate(0) translate(4 501.1812)">
<title>G</title>
<polygon fill="#ffffff" stroke="transparent" points="-4,4 -4,-501.1812 461.25,-501.1812 461.25,4 -4,4"/>
<!-- 12 -->
<g id="node1" class="node">
<title>12</title>
<ellipse fill="#ff0000" stroke="#000000" cx="237.25" cy="-455.3484" rx="41.6664" ry="41.6664"/>
<text text-anchor="middle" x="237.25" y="-459.5484" font-family="Times,serif" font-size="14.00" fill="#000000">/</text>
<text text-anchor="middle" x="237.25" y="-442.7484" font-family="Times,serif" font-size="14.00" fill="#000000">-204.33</text>
</g>
<!-- 10 -->
<g id="node2" class="node">
<title>10</title>
<ellipse fill="#add8e6" stroke="#000000" cx="194.25" cy="-335.6826" rx="41.6664" ry="41.6664"/>
<text text-anchor="middle" x="194.25" y="-339.8826" font-family="Times,serif" font-size="14.00" fill="#000000">-</text>
<text text-anchor="middle" x="194.25" y="-323.0826" font-family="Times,serif" font-size="14.00" fill="#000000">-613.00</text>
</g>
<!-- 12&#45;&gt;10 -->
<g id="edge11" class="edge">
<title>12-&gt;10</title>
<path fill="none" stroke="#000000" stroke-dasharray="5,2" d="M223.051,-415.8337C219.4917,-405.9283 215.6294,-395.1799 211.9238,-384.8676"/>
<polygon fill="#000000" stroke="#000000" points="215.1096,-383.3831 208.4341,-375.1558 208.522,-385.7503 215.1096,-383.3831"/>
</g>
<!-- 11 -->
<g id="node13" class="node">
<title>11</title>
<polygon fill="#d3d3d3" stroke="#000000" points="308.25,-356.2845 254.25,-356.2845 254.25,-315.0807 308.25,-315.0807 308.25,-356.2845"/>
<text text-anchor="middle" x="281.25" y="-339.8826" font-family="Times,serif" font-size="14.00" fill="#000000">const</text>
<text text-anchor="middle" x="281.25" y="-323.0826" font-family="Times,serif" font-size="14.00" fill="#000000">3.00</text>
</g>
<!-- 12&#45;&gt;11 -->
<g id="edge12" class="edge">
<title>12-&gt;11</title>
<path fill="none" stroke="#000000" stroke-dasharray="5,2" d="M251.7792,-415.8337C257.7751,-399.5269 264.611,-380.9352 270.1887,-365.7657"/>
<polygon fill="#000000" stroke="#000000" points="273.4848,-366.9433 273.6509,-356.3497 266.9148,-364.5275 273.4848,-366.9433"/>
</g>
<!-- 3 -->
<g id="node3" class="node">
<title>3</title>
<ellipse fill="#00ff00" stroke="#000000" cx="147.25" cy="-219.3125" rx="38.5747" ry="38.5747"/>
<text text-anchor="middle" x="147.25" y="-223.5125" font-family="Times,serif" font-size="14.00" fill="#000000">+</text>
<text text-anchor="middle" x="147.25" y="-206.7125" font-family="Times,serif" font-size="14.00" fill="#000000">155.00</text>
</g>
<!-- 10&#45;&gt;3 -->
<g id="edge4" class="edge">
<title>10-&gt;3</title>
<path fill="none" stroke="#000000" stroke-dasharray="5,2" d="M178.4689,-296.6093C174.3446,-286.3976 169.8634,-275.3023 165.6172,-264.7889"/>
<polygon fill="#000000" stroke="#000000" points="168.791,-263.3011 161.8007,-255.3395 162.3004,-265.9226 168.791,-263.3011"/>
</g>
<!-- 9 -->
<g id="node7" class="node">
<title>9</title>
<ellipse fill="#ffff00" stroke="#000000" cx="266.25" cy="-219.3125" rx="38.5747" ry="38.5747"/>
<text text-anchor="middle" x="266.25" y="-223.5125" font-family="Times,serif" font-size="14.00" fill="#000000">*</text>
<text text-anchor="middle" x="266.25" y="-206.7125" font-family="Times,serif" font-size="14.00" fill="#000000">768.00</text>
</g>
<!-- 10&#45;&gt;9 -->
<g id="edge10" class="edge">
<title>10-&gt;9</title>
<path fill="none" stroke="#000000" stroke-dasharray="5,2" d="M216.4399,-299.8182C224.0942,-287.4469 232.7303,-273.4887 240.6357,-260.7116"/>
<polygon fill="#000000" stroke="#000000" points="243.6857,-262.4341 245.9709,-252.0886 237.733,-258.751 243.6857,-262.4341"/>
</g>
<!-- 0 -->
<g id="node4" class="node">
<title>0</title>
<polygon fill="#d3d3d3" stroke="#000000" points="54.2523,-131.7895 .2477,-131.7895 .2477,-90.5857 54.2523,-90.5857 54.2523,-131.7895"/>
<text text-anchor="middle" x="27.25" y="-115.3876" font-family="Times,serif" font-size="14.00" fill="#000000">const</text>
<text text-anchor="middle" x="27.25" y="-98.5876" font-family="Times,serif" font-size="14.00" fill="#000000">100.00</text>
</g>
<!-- 3&#45;&gt;0 -->
<g id="edge1" class="edge">
<title>3-&gt;0</title>
<path fill="none" stroke="#000000" stroke-dasharray="5,2" d="M117.9342,-193.6186C101.7255,-179.3325 81.2759,-161.177 63.25,-144.7751 61.1162,-142.8336 58.9194,-140.8202 56.7131,-138.7877"/>
<polygon fill="#000000" stroke="#000000" points="58.9693,-136.1067 49.254,-131.8799 54.2129,-141.2426 58.9693,-136.1067"/>
</g>
<!-- 1 -->
<g id="node5" class="node">
<title>1</title>
<polygon fill="#d3d3d3" stroke="#000000" points="126.25,-131.7895 72.25,-131.7895 72.25,-90.5857 126.25,-90.5857 126.25,-131.7895"/>
<text text-anchor="middle" x="99.25" y="-115.3876" font-family="Times,serif" font-size="14.00" fill="#000000">const</text>
<text text-anchor="middle" x="99.25" y="-98.5876" font-family="Times,serif" font-size="14.00" fill="#000000">40.00</text>
</g>
<!-- 3&#45;&gt;1 -->
<g id="edge2" class="edge">
<title>3-&gt;1</title>
<path fill="none" stroke="#000000" stroke-dasharray="5,2" d="M131.533,-183.9083C125.3726,-170.0315 118.3824,-154.2852 112.4856,-141.0022"/>
<polygon fill="#000000" stroke="#000000" points="115.6691,-139.5471 108.4127,-131.8274 109.2712,-142.3874 115.6691,-139.5471"/>
</g>
<!-- 2 -->
<g id="node6" class="node">
<title>2</title>
<polygon fill="#d3d3d3" stroke="#000000" points="198.25,-131.7895 144.25,-131.7895 144.25,-90.5857 198.25,-90.5857 198.25,-131.7895"/>
<text text-anchor="middle" x="171.25" y="-115.3876" font-family="Times,serif" font-size="14.00" fill="#000000">const</text>
<text text-anchor="middle" x="171.25" y="-98.5876" font-family="Times,serif" font-size="14.00" fill="#000000">15.00</text>
</g>
<!-- 3&#45;&gt;2 -->
<g id="edge3" class="edge">
<title>3-&gt;2</title>
<path fill="none" stroke="#000000" stroke-dasharray="5,2" d="M155.644,-181.4956C158.5376,-168.4595 161.7395,-154.0341 164.4862,-141.6598"/>
<polygon fill="#000000" stroke="#000000" points="167.9194,-142.3442 166.6696,-131.8234 161.0857,-140.8274 167.9194,-142.3442"/>
</g>
<!-- 4 -->
<g id="node8" class="node">
<title>4</title>
<polygon fill="#d3d3d3" stroke="#000000" points="270.25,-131.7895 216.25,-131.7895 216.25,-90.5857 270.25,-90.5857 270.25,-131.7895"/>
<text text-anchor="middle" x="243.25" y="-115.3876" font-family="Times,serif" font-size="14.00" fill="#000000">const</text>
<text text-anchor="middle" x="243.25" y="-98.5876" font-family="Times,serif" font-size="14.00" fill="#000000">4.00</text>
</g>
<!-- 9&#45;&gt;4 -->
<g id="edge5" class="edge">
<title>9-&gt;4</title>
<path fill="none" stroke="#000000" stroke-dasharray="5,2" d="M258.2057,-181.4956C255.4327,-168.4595 252.3642,-154.0341 249.732,-141.6598"/>
<polygon fill="#000000" stroke="#000000" points="253.1437,-140.8763 247.6396,-131.8234 246.2969,-142.3328 253.1437,-140.8763"/>
</g>
<!-- 5 -->
<g id="node9" class="node">
<title>5</title>
<polygon fill="#d3d3d3" stroke="#000000" points="342.25,-131.7895 288.25,-131.7895 288.25,-90.5857 342.25,-90.5857 342.25,-131.7895"/>
<text text-anchor="middle" x="315.25" y="-115.3876" font-family="Times,serif" font-size="14.00" fill="#000000">const</text>
<text text-anchor="middle" x="315.25" y="-98.5876" font-family="Times,serif" font-size="14.00" fill="#000000">12.00</text>
</g>
<!-- 9&#45;&gt;5 -->
<g id="edge6" class="edge">
<title>9-&gt;5</title>
<path fill="none" stroke="#000000" stroke-dasharray="5,2" d="M282.1589,-184.2074C288.4552,-170.3138 295.6182,-154.5076 301.6659,-141.1628"/>
<polygon fill="#000000" stroke="#000000" points="304.9041,-142.4962 305.844,-131.9432 298.5283,-139.6068 304.9041,-142.4962"/>
</g>
<!-- 8 -->
<g id="node10" class="node">
<title>8</title>
<ellipse fill="#00ff00" stroke="#000000" cx="394.25" cy="-111.1876" rx="33.6754" ry="33.6754"/>
<text text-anchor="middle" x="394.25" y="-115.3876" font-family="Times,serif" font-size="14.00" fill="#000000">+</text>
<text text-anchor="middle" x="394.25" y="-98.5876" font-family="Times,serif" font-size="14.00" fill="#000000">16.00</text>
</g>
<!-- 9&#45;&gt;8 -->
<g id="edge9" class="edge">
<title>9-&gt;8</title>
<path fill="none" stroke="#000000" stroke-dasharray="5,2" d="M295.9375,-194.2347C315.2361,-177.9327 340.4444,-156.6385 360.5031,-139.6944"/>
<polygon fill="#000000" stroke="#000000" points="362.8123,-142.3254 368.193,-133.1986 358.2952,-136.9779 362.8123,-142.3254"/>
</g>
<!-- 6 -->
<g id="node11" class="node">
<title>6</title>
<polygon fill="#d3d3d3" stroke="#000000" points="385.25,-41.4019 331.25,-41.4019 331.25,-.1981 385.25,-.1981 385.25,-41.4019"/>
<text text-anchor="middle" x="358.25" y="-25" font-family="Times,serif" font-size="14.00" fill="#000000">const</text>
<text text-anchor="middle" x="358.25" y="-8.2" font-family="Times,serif" font-size="14.00" fill="#000000">4.00</text>
</g>
<!-- 8&#45;&gt;6 -->
<g id="edge7" class="edge">
<title>8-&gt;6</title>
<path fill="none" stroke="#000000" d="M381.76,-79.8281C378.0614,-70.5418 374.0193,-60.3931 370.3461,-51.1705"/>
<polygon fill="#000000" stroke="#000000" points="373.4906,-49.6064 366.5388,-41.6112 366.9874,-52.1965 373.4906,-49.6064"/>
</g>
<!-- 7 -->
<g id="node12" class="node">
<title>7</title>
<polygon fill="#d3d3d3" stroke="#000000" points="457.25,-41.4019 403.25,-41.4019 403.25,-.1981 457.25,-.1981 457.25,-41.4019"/>
<text text-anchor="middle" x="430.25" y="-25" font-family="Times,serif" font-size="14.00" fill="#000000">const</text>
<text text-anchor="middle" x="430.25" y="-8.2" font-family="Times,serif" font-size="14.00" fill="#000000">12.00</text>
</g>
<!-- 8&#45;&gt;7 -->
<g id="edge8" class="edge">
<title>8-&gt;7</title>
<path fill="none" stroke="#000000" d="M406.74,-79.8281C410.4386,-70.5418 414.4807,-60.3931 418.1539,-51.1705"/>
<polygon fill="#000000" stroke="#000000" points="421.5126,-52.1965 421.9612,-41.6112 415.0094,-49.6064 421.5126,-52.1965"/>
</g>
</g>
</svg>